# xmcd CD database file
#
# Track frame offsets:
#	150
#	24605
#	42883
#	80293
#	97311
#	119557
#	148055
#	160922
#	179767
#	197439
#	213092
#	228407
#	258394
#	281429
#	291827
#	311799
#	332341
#
# Disc length: 4692 seconds
#
# Revision: 0
# Processed by: cddbd v1.5.1PL2 Copyright (c) Steve Scherf et al.
# Submitted via: CDex 1.51
#
DISCID=fa125211
DTITLE=Miles Davis - Jazz and Blues Masters
DYEAR=1900
DGENRE=Jazz
TTITLE0=Well you needn't
TTITLE1=Four
TTITLE2=Blue 'n' boogie
TTITLE3=Yesterdays
TTITLE4=Stop, look and listen
TTITLE5=Bird house
TTITLE6=Yardbird suite
TTITLE7=Chantized
TTITLE8=Tune up
TTITLE9=When ligths are low
TTITLE10=Old devil moon
TTITLE11=Curro's
TTITLE12=The court
TTITLE13=Cool blues
TTITLE14=Shaw' nuff
TTITLE15=The leap
TTITLE16=You don't know what love is
EXTD=
EXTT0=
EXTT1=
EXTT2=
EXTT3=
EXTT4=
EXTT5=
EXTT6=
EXTT7=
EXTT8=
EXTT9=
EXTT10=
EXTT11=
EXTT12=
EXTT13=
EXTT14=
EXTT15=
EXTT16=
PLAYORDER=
